<svg id="search" xmlns="http://www.w3.org/2000/svg" width="38.333" height="38.333" viewBox="0 0 38.333 38.333">
  <path id="Path_22" data-name="Path 22" d="M8.5,151.081l-1.334,4.981-4.877.1a19.2,19.2,0,0,1-.141-17.9h0l4.342.8,1.9,4.316a11.439,11.439,0,0,0,.108,7.7Z" transform="translate(0 -127.916)" fill="#fbbb00"/>
  <path id="Path_23" data-name="Path 23" d="M280.038,208.176a19.159,19.159,0,0,1-6.833,18.527h0l-5.469-.279-.774-4.832a11.423,11.423,0,0,0,4.915-5.833H261.628v-7.582h18.41Z" transform="translate(-242.04 -192.59)" fill="#518ef8"/>
  <path id="Path_24" data-name="Path 24" d="M59.39,320.356h0a19.173,19.173,0,0,1-28.882-5.864l6.211-5.084a11.4,11.4,0,0,0,16.426,5.836Z" transform="translate(-28.225 -286.244)" fill="#28b446"/>
  <path id="Path_25" data-name="Path 25" d="M57.882,4.413,51.672,9.5a11.4,11.4,0,0,0-16.8,5.968l-6.244-5.112h0a19.171,19.171,0,0,1,29.258-5.94Z" transform="translate(-26.481)" fill="#f14336"/>
</svg>
