<svg xmlns="http://www.w3.org/2000/svg" width="44" height="35.75" viewBox="0 0 44 35.75">
  <g id="twitter_1_" data-name="twitter (1)" transform="translate(0 -48)">
    <g id="Group_5" data-name="Group 5" transform="translate(0 48)">
      <path id="Path_21" data-name="Path 21" d="M44,52.232a18.807,18.807,0,0,1-5.2,1.424,8.97,8.97,0,0,0,3.968-4.986,18.027,18.027,0,0,1-5.72,2.183,9.02,9.02,0,0,0-15.6,6.168,9.288,9.288,0,0,0,.209,2.057A25.532,25.532,0,0,1,3.063,49.645,9.023,9.023,0,0,0,5.835,61.7,8.908,8.908,0,0,1,1.76,60.589v.1a9.062,9.062,0,0,0,7.227,8.863,9,9,0,0,1-2.365.3,7.976,7.976,0,0,1-1.708-.154,9.106,9.106,0,0,0,8.429,6.284A18.125,18.125,0,0,1,2.159,79.826,16.9,16.9,0,0,1,0,79.7,25.4,25.4,0,0,0,13.838,83.75c16.6,0,25.674-13.75,25.674-25.668,0-.4-.014-.784-.033-1.166A18,18,0,0,0,44,52.232Z" transform="translate(0 -48)" fill="#3292ab"/>
    </g>
  </g>
</svg>
